<?xml version="1.0" standalone="no"?>
<!DOCTYPE svg PUBLIC "-//W3C//DTD SVG 20010904//EN"
 "http://www.w3.org/TR/2001/REC-SVG-20010904/DTD/svg10.dtd">
<svg version="1.0" xmlns="http://www.w3.org/2000/svg"
 width="820.000000pt" height="177.000000pt" viewBox="0 0 820.000000 177.000000"
 preserveAspectRatio="xMidYMid meet">

<g transform="translate(0.000000,177.000000) scale(0.100000,-0.100000)"
fill="#000000" stroke="none">
<path d="M540 1620 c-110 -20 -197 -68 -283 -158 -223 -235 -184 -612 84 -798
102 -72 155 -88 289 -88 132 -1 196 15 275 66 l50 33 0 200 0 200 -160 0
c-157 0 -160 0 -163 -22 -3 -22 25 -46 51 -42 6 1 56 1 110 0 l98 -1 -3 -142
-3 -143 -70 -35 c-67 -34 -73 -35 -185 -35 -110 0 -119 2 -180 32 -102 50
-163 110 -211 208 -37 74 -42 93 -46 172 -6 100 10 173 55 256 35 66 133 154
212 191 60 29 73 31 175 31 118 0 162 -13 247 -71 40 -28 65 -28 82 -2 35 56
-199 162 -349 157 -16 -1 -50 -5 -75 -9z"/>
<path d="M4304 1620 c-64 -9 -149 -55 -180 -95 -57 -75 -68 -170 -30 -250 46
-98 128 -148 300 -184 120 -25 177 -57 217 -119 23 -37 29 -57 29 -104 0 -145
-83 -218 -246 -218 -125 0 -220 43 -271 123 -26 41 -56 47 -77 15 -22 -35 63
-135 149 -174 193 -89 424 -36 492 112 33 72 40 155 20 225 -33 111 -115 169
-292 209 -128 29 -188 54 -225 96 -36 41 -44 70 -38 133 6 60 36 104 91 134
35 18 58 22 137 22 86 0 100 -3 142 -27 25 -16 60 -44 76 -64 51 -62 110 -26
66 40 -22 34 -102 93 -151 110 -52 18 -147 26 -209 16z"/>
<path d="M2787 1604 c-4 -4 -7 -104 -7 -222 l0 -215 -50 47 c-68 63 -127 88
-222 94 -59 3 -92 0 -148 -17 -62 -19 -81 -31 -135 -84 -82 -81 -108 -146
-109 -267 -1 -76 3 -92 32 -154 71 -150 214 -225 393 -205 115 12 225 93 275
201 l29 63 0 380 0 380 -25 3 c-14 2 -29 0 -33 -4z m-210 -379 c115 -34 196
-148 197 -280 1 -168 -121 -295 -285 -295 -169 0 -286 109 -297 275 -13 215
176 362 385 300z"/>
<path d="M1396 1294 c-101 -32 -190 -115 -227 -213 -43 -111 -23 -267 46 -360
35 -48 116 -107 174 -126 71 -23 194 -21 262 5 75 27 160 106 196 178 25 51
28 67 28 162 0 95 -3 111 -29 168 -34 74 -95 133 -176 170 -70 33 -199 40
-274 16z m211 -69 c68 -20 143 -88 174 -157 35 -78 33 -182 -5 -260 -49 -102
-141 -158 -261 -158 -163 0 -279 109 -292 274 -6 66 18 154 55 200 77 99 205
138 329 101z"/>
<path d="M5213 1296 c-219 -71 -318 -306 -220 -519 47 -102 162 -184 275 -196
129 -14 226 16 307 95 l45 43 0 -59 c0 -63 14 -82 52 -72 18 4 19 15 16 236
l-3 231 -32 61 c-63 121 -170 186 -313 191 -53 2 -101 -2 -127 -11z m204 -71
c68 -20 143 -88 174 -157 35 -79 34 -184 -4 -260 -50 -102 -143 -158 -262
-158 -161 0 -278 107 -292 269 -9 92 18 163 87 233 83 83 182 107 297 73z"/>
<path d="M6458 1298 c-9 -7 -76 -145 -149 -305 -73 -161 -135 -290 -138 -287
-3 3 -67 136 -142 297 -132 285 -136 292 -165 292 -18 0 -30 -6 -32 -16 -1 -9
68 -167 154 -352 161 -344 177 -369 211 -334 19 19 313 655 313 677 0 16 -18
40 -30 40 -3 0 -13 -6 -22 -12z"/>
<path d="M6915 1301 c-89 -23 -174 -94 -211 -176 -74 -161 -48 -334 67 -446
81 -80 143 -102 264 -96 125 6 235 57 235 109 0 33 -30 32 -94 -3 -57 -32 -67
-34 -151 -34 -102 0 -140 14 -201 73 -39 38 -68 94 -79 155 l-7 37 285 0 c332
0 323 -2 312 84 -18 127 -91 233 -191 278 -51 22 -178 33 -229 19z m218 -94
c51 -30 92 -80 112 -138 30 -85 48 -79 -245 -79 l-260 0 6 28 c20 92 90 178
170 208 59 22 162 13 217 -19z"/>
<path d="M7708 1293 c-107 -36 -169 -156 -124 -241 37 -70 99 -105 239 -133
147 -30 188 -54 207 -120 13 -43 -11 -92 -59 -121 -31 -20 -49 -23 -141 -23
-114 0 -155 12 -204 62 -48 48 -105 2 -59 -49 21 -23 114 -72 157 -82 52 -13
179 -8 226 9 129 45 192 154 144 248 -40 78 -91 109 -232 137 -131 27 -154 36
-185 68 -37 38 -43 79 -18 119 27 44 73 65 153 71 59 4 75 1 123 -23 31 -15
63 -38 72 -51 19 -30 58 -32 74 -3 9 18 5 27 -39 69 -30 28 -68 54 -97 64 -61
20 -174 20 -237 -1z"/>
<path d="M3458 1203 l-3 -58 -57 -3 -58 -3 0 -59 0 -60 60 0 60 0 0 -135 0
-135 60 0 60 0 0 135 0 135 55 0 55 0 0 60 0 60 -55 0 -55 0 0 60 0 60 -60 0
-59 0 -3 -57z"/>
<path d="M2941 587 c-6 -8 -37 -84 -70 -170 -57 -152 -58 -158 -40 -171 20
-13 20 -14 -1 -49 -21 -36 -21 -36 -2 -48 20 -12 20 -13 -1 -56 -14 -29 -18
-46 -11 -53 7 -7 100 -2 286 15 l276 26 26 -26 c23 -23 32 -25 111 -25 79 0
88 2 111 25 l26 26 275 -26 c151 -14 279 -23 284 -19 15 9 10 37 -11 72 -16
27 -17 32 -5 32 25 0 27 25 5 62 -18 31 -18 36 -5 42 8 3 15 11 15 18 0 18
-111 311 -124 327 -21 27 -274 -9 -383 -54 -63 -26 -113 -66 -152 -122 l-38
-52 -34 50 c-65 96 -188 154 -380 179 -102 13 -145 12 -158 -3z m288 -67 c129
-36 195 -82 235 -162 22 -44 26 -65 26 -141 0 -49 -3 -87 -7 -85 -5 2 -31 15
-60 30 -115 61 -287 105 -445 115 -61 4 -98 10 -98 17 0 10 48 148 79 230 l12
29 92 -6 c51 -4 125 -16 166 -27z m836 13 c22 -55 85 -236 85 -244 0 -5 -26
-9 -58 -9 -158 0 -336 -40 -465 -104 l-89 -44 4 103 c3 96 5 106 33 147 69 98
234 163 421 167 50 1 63 -2 69 -16z"/>
</g>
</svg>
